<?xml version="1.0" encoding="UTF-8"?><svg id="Layer_6" xmlns="http://www.w3.org/2000/svg" viewBox="0 0 35 38"><defs><style>.cls-1{fill:#fff;}.cls-2{stroke:#000;stroke-miterlimit:10;stroke-width:.5px;}</style></defs><path class="cls-2" d="m30.89,4.28l-7.77,11.16c-.16.23-.53.17-.6-.1l-1.94-12.57c-.09-.33-.55-.33-.64-.01l-6.26,14.61c-.02.08-.07.14-.14.18l-10.94,7.09c-.21.13-.2.44,0,.57l14.13,8.7c.09.05.19.06.29.03l12.1-4.24c.12-.04.21-.16.22-.29l2.14-24.9c.03-.34-.41-.5-.61-.22Z"/><circle class="cls-1" cx="22.87" cy="24.28" r="1.46"/></svg>